<svg xmlns="http://www.w3.org/2000/svg" width="512" height="512" viewBox="0 0 512 512" role="img" aria-label="Kimss">
  <title>Kimss</title>
  <rect width="512" height="512" rx="48" fill="#EEF0FF"/>
  <g transform="translate(40 211) scale(6)">
    <g clip-path="url(#kimss_logo_clip)">
      <path d="M16.1846 0.484375H10.7692L5.96923 5.74647C5.96923 5.74647 5.72308 6.04889 5.29231 6.10938C4.92308 6.10938 4.73846 5.74647 4.73846 5.74647V0.484375H0V14.8191H4.73846V9.55696C4.73846 9.55696 4.67692 9.19405 5.29231 9.19405C5.90769 9.19405 5.96923 9.55696 5.96923 9.55696L10.7692 14.7586H16.1846L9.72308 7.62147L16.1846 0.484375Z" fill="#2A2E83"/>
      <path d="M22.2769 0.423828H17.5385V14.7585H22.2769V0.423828Z" fill="#2A2E83"/>
      <path d="M24.123 0.48406H28.2461V2.48003C29.1692 1.27035 30.4615 0.181641 32.4923 0.181641C34.523 0.181641 35.8154 1.02841 36.5538 2.41954C37.8461 0.967931 39.323 0.181641 41.2923 0.181641C44.3692 0.181641 46.2154 1.99616 46.2154 5.44374V14.6978H42.0923V6.77438C42.0923 4.8389 41.2307 3.87116 39.6923 3.87116C38.1538 3.87116 37.2307 4.8389 37.2307 6.77438V14.6978H33.1077V6.77438C33.1077 4.8389 32.2461 3.87116 30.7077 3.87116C29.1692 3.87116 28.2461 4.8389 28.2461 6.77438V14.6978H24.123V0.423576V0.48406Z" fill="#2A2E83"/>
      <path d="M46.5231 12.9435L48.4308 9.85887C50.0923 10.9476 51.9385 11.4919 53.4769 11.4919C55.0154 11.4919 54.7692 11.25 54.7692 10.7056C54.7692 10.1008 53.9692 9.85887 52.4308 9.43548C49.5385 8.70968 47.2615 7.74194 47.2615 4.83871C47.2615 1.75403 49.7231 0 53.1077 0C56.4923 0 57.4769 0.604839 59.1385 1.69355L57.3538 4.89919C55.8154 4.05242 54.2154 3.56855 53.0461 3.56855C51.8769 3.56855 51.8769 3.87097 51.8769 4.23387C51.8769 4.83871 52.7385 5.14113 54.2769 5.56452C57.1692 6.35081 59.4461 7.31855 59.4461 10.1613C59.4461 13.3669 57.0462 15 53.4769 15C49.9077 15 48.5538 14.3347 46.5231 12.8831V12.9435Z" fill="#2A2E83"/>
      <path d="M59.0769 12.9435L60.9846 9.85887C62.6461 10.9476 64.4923 11.4919 66.0308 11.4919C67.5692 11.4919 67.3231 11.25 67.3231 10.7056C67.3231 10.1008 66.5231 9.85887 64.9846 9.43548C62.0923 8.70968 59.8154 7.74194 59.8154 4.83871C59.8154 1.75403 62.2769 0 65.6615 0C69.0461 0 70.0308 0.604839 71.6923 1.69355L69.9077 4.89919C68.3692 4.05242 66.7692 3.56855 65.6 3.56855C64.4307 3.56855 64.4307 3.87097 64.4307 4.23387C64.4307 4.83871 65.2923 5.14113 66.8307 5.56452C69.7231 6.35081 72 7.31855 72 10.1613C72 13.3669 69.6 15 66.0308 15C62.4615 15 61.1077 14.3347 59.0769 12.8831V12.9435Z" fill="#2A2E83"/>
    </g>
    <defs>
      <clipPath id="kimss_logo_clip">
        <rect width="72" height="15" fill="white"/>
      </clipPath>
    </defs>
  </g>
</svg>
